<svg id="Layer_1" data-name="Layer 1" xmlns="http://www.w3.org/2000/svg" viewBox="0 0 120 27"><path d="M906,527h108a6,6,0,0,1,6,6v15a6,6,0,0,1-6,6H906a6,6,0,0,1-6-6V533a6,6,0,0,1,6-6Z" transform="translate(-900 -527)" style="fill:#2196f3"/><path d="M916.86,544.7h-9a1.81,1.81,0,0,1-1.8-1.8v-6.6h9a1.81,1.81,0,0,1,1.8,1.8Z" transform="translate(-900 -527)" style="fill:#fff"/><polygon points="21.66 17.7 18.06 15.3 18.06 11.7 21.66 9.3 21.66 17.7" style="fill:#fff"/><g style="isolation:isolate"><path d="M932.46,544.52a5.6,5.6,0,0,1-1.16.38,5.68,5.68,0,0,1-1.2.12,3.81,3.81,0,0,1-2.78-1,3.75,3.75,0,0,1-1-2.82,3.89,3.89,0,0,1,1.11-2.85,3.85,3.85,0,0,1,2.91-1.14,7,7,0,0,1,1.08.08,5.71,5.71,0,0,1,1,.28l-.5,1.37a4.84,4.84,0,0,0-.74-.2,3.84,3.84,0,0,0-.78-.07,2.25,2.25,0,0,0-1.6.65,2.34,2.34,0,0,0-.68,1.76,2.56,2.56,0,0,0,.59,1.79,2.07,2.07,0,0,0,1.62.65,4.17,4.17,0,0,0,.69-.08,4.5,4.5,0,0,0,.85-.29Z" transform="translate(-900 -527)" style="fill:#fff"/><path d="M935.91,545a2.88,2.88,0,0,1-2.12-.76,2.73,2.73,0,0,1-.77-2,2.79,2.79,0,0,1,.81-2.1,3,3,0,0,1,2.15-.75,2.88,2.88,0,0,1,2.11.75,2.68,2.68,0,0,1,.76,2,2.84,2.84,0,0,1-.79,2.12A2.91,2.91,0,0,1,935.91,545Zm.05-1.27a1.07,1.07,0,0,0,.9-.4,2,2,0,0,0,.3-1.2,1.81,1.81,0,0,0-.3-1.13,1.25,1.25,0,0,0-1.82,0,1.79,1.79,0,0,0-.33,1.15,1.89,1.89,0,0,0,.31,1.16A1.15,1.15,0,0,0,936,543.75Z" transform="translate(-900 -527)" style="fill:#fff"/><path d="M945.13,544.89h-1.66v-3a1.61,1.61,0,0,0-.22-.94.77.77,0,0,0-.67-.32.89.89,0,0,0-.71.33,1.28,1.28,0,0,0-.28.85v3.07h-1.66V539.5h1.66v.86h0a2.07,2.07,0,0,1,.73-.74,1.93,1.93,0,0,1,1-.25,1.6,1.6,0,0,1,1.34.56,2.59,2.59,0,0,1,.45,1.66Z" transform="translate(-900 -527)" style="fill:#fff"/><path d="M951.65,544.89H950v-3a1.61,1.61,0,0,0-.22-.94.78.78,0,0,0-.67-.32.88.88,0,0,0-.71.33,1.28,1.28,0,0,0-.28.85v3.07h-1.66V539.5h1.66v.86h0a2,2,0,0,1,.73-.74,1.93,1.93,0,0,1,1-.25,1.63,1.63,0,0,1,1.34.56,2.59,2.59,0,0,1,.45,1.66Z" transform="translate(-900 -527)" style="fill:#fff"/><path d="M957.8,542.67h-3.51a1.15,1.15,0,0,0,.39.87,1.46,1.46,0,0,0,1,.28,2.19,2.19,0,0,0,.64-.14,2.59,2.59,0,0,0,.79-.44l.74.94a3.84,3.84,0,0,1-1.14.64,4,4,0,0,1-1.28.2,2.5,2.5,0,0,1-2.75-2.74,2.93,2.93,0,0,1,.76-2.1,2.54,2.54,0,0,1,1.93-.81,2.44,2.44,0,0,1,1.8.68,2.65,2.65,0,0,1,.67,2Zm-1.54-1a1.3,1.3,0,0,0-.24-.89.87.87,0,0,0-.7-.27,1,1,0,0,0-.69.31,1.47,1.47,0,0,0-.35.85Z" transform="translate(-900 -527)" style="fill:#fff"/><path d="M963.12,544.55a4.08,4.08,0,0,1-.85.36,3.72,3.72,0,0,1-.91.11,2.91,2.91,0,0,1-2.13-.75,2.6,2.6,0,0,1-.76-1.94,2.9,2.9,0,0,1,.81-2.17,3,3,0,0,1,2.15-.79,3.36,3.36,0,0,1,.89.1,3.11,3.11,0,0,1,.77.31l-.62,1.12a1.55,1.55,0,0,0-.47-.19,1.59,1.59,0,0,0-.5-.07,1.26,1.26,0,0,0-1,.41,1.78,1.78,0,0,0-.35,1.17,1.51,1.51,0,0,0,.4,1.12,1.28,1.28,0,0,0,1,.41,2.25,2.25,0,0,0,.42-.07,2.5,2.5,0,0,0,.54-.23Z" transform="translate(-900 -527)" style="fill:#fff"/><path d="M967.32,544.8a1.84,1.84,0,0,1-.56.16,3.39,3.39,0,0,1-.64.06,1.85,1.85,0,0,1-1.33-.43,1.7,1.7,0,0,1-.44-1.27v-2.59h-.88V539.5h.88v-1.3l1.65-.47v1.77h1.21v1.23H966v2.48a.72.72,0,0,0,.12.46.53.53,0,0,0,.39.13,1,1,0,0,0,.49-.12Z" transform="translate(-900 -527)" style="fill:#fff"/><path d="M973.69,545a2.87,2.87,0,0,1-2.12-.76,2.69,2.69,0,0,1-.77-2,2.78,2.78,0,0,1,.8-2.1,3,3,0,0,1,2.16-.75,2.88,2.88,0,0,1,2.11.75,2.71,2.71,0,0,1,.76,2,2.84,2.84,0,0,1-.79,2.12A2.91,2.91,0,0,1,973.69,545Zm0-1.27a1.07,1.07,0,0,0,.9-.4,2,2,0,0,0,.29-1.2,1.81,1.81,0,0,0-.3-1.13,1.09,1.09,0,0,0-.9-.38,1.13,1.13,0,0,0-.92.41,1.85,1.85,0,0,0-.32,1.15,1.82,1.82,0,0,0,.31,1.16A1.13,1.13,0,0,0,973.74,543.75Z" transform="translate(-900 -527)" style="fill:#fff"/><path d="M982.91,544.89h-1.66v-3A1.61,1.61,0,0,0,981,541a.78.78,0,0,0-.67-.32.88.88,0,0,0-.71.33,1.28,1.28,0,0,0-.28.85v3.07h-1.66V539.5h1.66v.86h0a2,2,0,0,1,.73-.74,1.93,1.93,0,0,1,1-.25,1.62,1.62,0,0,1,1.34.56,2.59,2.59,0,0,1,.45,1.66Z" transform="translate(-900 -527)" style="fill:#fff"/><path d="M992.76,544.89h-6v-1l3.74-5.18h-3.46v-1.38h5.66v.95l-3.65,5.21h3.66Z" transform="translate(-900 -527)" style="fill:#fff"/><path d="M996.3,545a2.87,2.87,0,0,1-2.12-.76,2.69,2.69,0,0,1-.77-2,2.78,2.78,0,0,1,.8-2.1,3,3,0,0,1,2.16-.75,2.84,2.84,0,0,1,2.1.75,2.68,2.68,0,0,1,.77,2,2.84,2.84,0,0,1-.79,2.12A2.91,2.91,0,0,1,996.3,545Zm.05-1.27a1.07,1.07,0,0,0,.9-.4,2,2,0,0,0,.29-1.2,1.81,1.81,0,0,0-.3-1.13,1.09,1.09,0,0,0-.9-.38,1.13,1.13,0,0,0-.92.41,1.85,1.85,0,0,0-.32,1.15,1.82,1.82,0,0,0,.31,1.16A1.13,1.13,0,0,0,996.35,543.75Z" transform="translate(-900 -527)" style="fill:#fff"/><path d="M1002.88,545a2.88,2.88,0,0,1-2.12-.76,2.69,2.69,0,0,1-.76-2,2.78,2.78,0,0,1,.8-2.1,3,3,0,0,1,2.16-.75,2.87,2.87,0,0,1,2.1.75,2.68,2.68,0,0,1,.76,2,2.87,2.87,0,0,1-.78,2.12A3,3,0,0,1,1002.88,545Zm.06-1.27a1.06,1.06,0,0,0,.89-.4,2,2,0,0,0,.3-1.2,1.81,1.81,0,0,0-.3-1.13,1.09,1.09,0,0,0-.91-.38,1.11,1.11,0,0,0-.91.41,1.79,1.79,0,0,0-.33,1.15,1.82,1.82,0,0,0,.32,1.16A1.13,1.13,0,0,0,1002.94,543.75Z" transform="translate(-900 -527)" style="fill:#fff"/><path d="M1015.45,544.89h-1.66v-3.07a1.48,1.48,0,0,0-.21-.88.74.74,0,0,0-.65-.3.81.81,0,0,0-.67.36,1.43,1.43,0,0,0-.25.88v3h-1.66v-3.1a1.36,1.36,0,0,0-.22-.86.74.74,0,0,0-.63-.29.82.82,0,0,0-.68.34,1.5,1.5,0,0,0-.26.92v3h-1.66V539.5h1.66v.84h0a2,2,0,0,1,.73-.7,2,2,0,0,1,1-.27,1.73,1.73,0,0,1,1,.25,1.6,1.6,0,0,1,.6.76,2.05,2.05,0,0,1,.76-.76,2.09,2.09,0,0,1,1.05-.25,1.59,1.59,0,0,1,1.31.54,2.58,2.58,0,0,1,.44,1.63Z" transform="translate(-900 -527)" style="fill:#fff"/></g></svg>
